<svg xmlns="http://www.w3.org/2000/svg" viewBox="0 0 32 32" fill="none">
  <!-- AS badge — matches navbar mark -->
  <rect width="32" height="32" rx="7" fill="#05070d"/>
  <rect
    x="1.25"
    y="1.25"
    width="29.5"
    height="29.5"
    rx="6"
    stroke="#22d3ee"
    stroke-opacity="0.5"
    stroke-width="1.5"
  />
  <rect x="4" y="4" width="24" height="24" rx="4.5" fill="#22d3ee" fill-opacity="0.12"/>

  <!-- A -->
  <path
    fill="#67e8f9"
    d="M7.2 22.2 L10.55 9.8 H12.85 L16.2 22.2 H14.35 L13.55 19.15 H9.85 L9.05 22.2 H7.2 Z M10.4 17.55 H13 L11.75 12.55 H11.65 L10.4 17.55 Z"
  />
  <!-- S -->
  <path
    fill="#67e8f9"
    d="M23.9 11.05 C23.55 10.15 22.55 9.45 21.05 9.45 C19.2 9.45 17.95 10.45 17.95 11.85 C17.95 13.1 18.85 13.75 20.55 14.15 L21.85 14.5 C23.35 14.9 24.55 15.7 24.55 17.45 C24.55 19.55 22.8 20.95 20.45 20.95 C18.55 20.95 17.15 20.15 16.55 18.85 L18.15 18.05 C18.5 18.95 19.35 19.5 20.5 19.5 C21.85 19.5 22.7 18.8 22.7 17.55 C22.7 16.4 21.85 15.85 20.2 15.4 L18.85 15.05 C17.05 14.55 16.1 13.55 16.1 11.9 C16.1 9.7 17.9 8.2 21.05 8.2 C22.85 8.2 24.25 8.85 24.95 10.1 L23.9 11.05 Z"
  />
</svg>
