<svg width="300" height="306" viewBox="0 0 300 306" fill="none" xmlns="http://www.w3.org/2000/svg">
<rect width="300" height="306" rx="15" fill="white" fill-opacity="0.6"/>
<path d="M144.267 238.729C144.25 238.828 144.233 238.929 144.216 239.029C143.941 239.075 143.666 239.128 143.393 239.189C143.129 239.248 142.865 239.317 142.601 239.391L143.314 239.108L144.266 238.728L144.267 238.729Z" fill="#6AAB46"/>
<path opacity="0.41" d="M142.918 133.585C144.276 132.039 165.922 108.231 196.719 113.575C212.177 116.257 226.775 125.848 234.104 138.977C252.048 171.123 221.902 209.71 216.55 216.562C208.901 226.353 195.542 243.453 173.653 244.96C159.2 245.956 147.756 239.69 142.319 236.154C152.615 248.21 162.755 251.09 167.362 251.97C192.46 256.762 215.452 233.122 224.158 224.171C229.718 218.455 233.789 212.862 235.661 210.272C240.606 203.428 248.24 192.867 252.077 180.076C253.831 174.227 259.425 155.111 250.039 135.023C248.275 131.246 241.479 117.236 225.416 108.962C214.654 103.418 204.914 103.119 200.433 103.03C180.312 102.636 165.944 112.251 159.214 117.17C151.37 122.902 146.129 129.147 142.918 133.585Z" fill="#6AAB46"/>
<path opacity="0.41" d="M145.555 120.286C146.492 116.686 153.264 92.2691 176.709 81.5833C199.004 71.422 227.162 77.879 245.726 98.2385C242.283 95.7594 220.376 80.5423 191.207 86.7356C161.451 93.0534 147.594 116.671 145.555 120.286Z" fill="#6AAB46"/>
<path opacity="0.41" d="M84.5054 153.656C94.81 149.462 102.649 143.716 99.1233 138.678C95.7684 133.885 90.6161 134.963 84.7442 137.479C85.7146 136.538 88.0335 134.311 91.5745 133.645C93.3958 133.302 96.3825 132.74 98.8835 134.603C101.242 136.36 102.029 139.424 101.76 141.793C101.348 145.403 99.1821 147.172 96.7268 148.982C92.6543 151.985 89.178 152.577 84.5054 153.655V153.656Z" fill="#6AAB46"/>
<path d="M84.2054 153.716C90.3928 152.535 98.0939 150.089 100.976 143.966C101.75 142.24 101.968 140.251 101.437 138.427C101.043 137.09 100.288 135.8 99.1548 134.969C95.8476 132.699 90.2813 133.539 87.0209 135.552C86.2208 136.045 85.4843 136.643 84.8812 137.351C84.7886 137.46 84.6244 137.473 84.5149 137.38C84.4214 137.3 84.3985 137.169 84.4522 137.064C86.5253 133.051 86.0824 127.6 82.5832 124.531C81.4636 123.53 80.0762 122.867 78.6132 122.542C76.4088 122.057 74.0501 122.242 71.8775 122.844C66.6276 124.403 63.6409 129.647 62.2436 134.636C59.5157 143.647 63.5026 153.095 68.9157 160.287C69.8392 161.512 70.8195 162.704 71.8616 163.812L71.4595 163.61C89.3707 165.367 110.286 153.052 121.644 139.765C126.26 134.211 130.792 126.967 129.696 119.475C129.397 117.679 128.773 115.917 127.92 114.275C119.419 98.6801 97.5266 96.9405 82.7146 103.823C75.742 106.95 69.6064 111.715 64.1525 117.034C60.5269 120.457 57.3909 124.399 54.8839 128.708C51.8524 133.853 49.7823 139.507 48.183 145.245C45.7377 153.5 45.0361 162.183 45.5914 170.762C46.2562 181.764 49.1523 192.565 53.5543 202.651C63.219 224.961 85.2773 251.798 111.635 251.554C123.146 251.351 133.404 244.717 141.086 236.526C141.542 236.043 142.303 236.022 142.785 236.478C145.035 238.959 147.479 241.262 150.148 243.26C177.647 263.955 208.784 240.599 227.385 219.035C229.32 216.899 231.192 214.425 233.064 212.226C243.806 198.952 252.234 183.12 254.534 166.048C255.844 156.123 254.564 145.807 250.269 136.723C244.497 124.695 235.105 114.057 222.951 108.27C212.338 103.171 200.665 102.082 189.119 103.924C173.809 106.287 159.991 114.817 149.516 126.044C147.205 128.516 145.032 131.122 143.047 133.868C153.88 118.519 170.205 106.318 188.995 103.174C200.682 101.168 212.616 102.173 223.43 107.253C232.78 111.581 240.616 118.778 246.419 127.231C250.333 132.863 253.461 139.093 255.09 145.781C261.063 170.199 249.082 195.861 233.809 214.485C218.53 233.681 194.289 256.702 167.779 253.224C160.859 252.271 154.274 249.35 148.716 245.168C145.935 243.088 143.388 240.715 141.067 238.157L142.831 238.176C131.419 250.401 116.564 257.342 99.8316 252.461C92.1812 250.296 85.2096 246.189 79.0591 241.214C52.6964 219.409 36.502 179.728 45.5068 146.007C47.2455 139.6 49.4808 133.265 52.8845 127.536C55.4532 123.156 58.6399 119.136 62.3223 115.639C71.4824 106.624 83.0639 99.0981 96.1771 98.0631C103.11 97.463 110.245 98.3169 116.597 101.295C123.83 104.665 130.198 111.076 131.578 119.172C133.193 130.768 122.856 142.242 114.529 149.102C103.894 157.621 91.0158 164.225 77.2328 165.101C75.2613 165.199 73.2778 165.144 71.3102 164.911C71.152 164.893 71.0086 164.818 70.9081 164.709C64.7247 157.807 59.6431 148.552 60.3776 139.032C60.498 137.546 60.7806 136.063 61.2016 134.633C61.6714 133.024 62.2536 131.437 63.0149 129.928C64.6491 126.64 67.2626 123.632 70.7887 122.334C74.7746 120.961 79.7836 121.046 83.047 124.016C86.7234 127.314 87.1672 133.074 84.917 137.297L84.4881 137.01C85.7948 135.515 87.5793 134.534 89.4413 133.924C92.5236 132.945 96.613 132.729 99.3688 134.674C100.948 135.874 101.827 137.841 101.993 139.786C102.201 142.24 101.202 144.664 99.6365 146.516C95.777 150.957 89.8046 152.705 84.2054 153.713V153.716Z" fill="#6AAB46"/>
<path d="M144.716 121.844C147.808 115.828 151.792 110.262 156.446 105.354C165.367 95.9014 177.08 89.0711 189.788 86.2466C209.317 81.8815 230.216 87.1334 246.738 98.0312L244.966 99.1289C244.71 97.6291 244.342 96.1223 243.932 94.6504C238.36 74.7875 223.821 58.6339 202.895 55.3078C199.868 54.7754 196.757 54.5007 193.683 54.4609C174.994 54.1832 158.071 64.5486 149.778 81.2904C147.17 86.4725 145.372 92.0876 144.488 97.8202C144.371 98.5835 144.276 99.3499 144.207 100.11L142.422 99.6803C145.777 91.9015 150.826 84.8802 157.11 79.2133C157.968 78.4321 159.105 77.4906 160.025 76.774C163.008 74.4432 166.274 72.4109 169.693 70.7847C181.816 64.9049 196.141 64.0938 208.944 68.0428C194.913 64.2649 179.416 66.0394 166.95 73.6012C162.36 76.3431 158.202 79.8294 154.632 83.8063C152.433 86.2446 150.441 88.8979 148.682 91.6687C146.923 94.4463 145.375 97.3644 144.142 100.392C143.948 100.867 143.406 101.095 142.931 100.901C142.545 100.744 142.321 100.356 142.356 99.9619C142.61 96.7493 143.236 93.5865 144.077 90.4823C144.48 88.9895 145.004 87.3543 145.534 85.8953C153.146 64.7665 172.384 51.3329 194.909 52.0256C197.717 52.1022 200.551 52.3918 203.317 52.8685C207.487 53.608 211.62 54.7017 215.502 56.4225C232.191 63.625 243.336 80.109 246.985 97.5674C247.064 97.9685 247.138 98.3596 247.204 98.7856C247.345 99.7649 246.248 100.462 245.432 99.8833C233.412 91.801 219.073 86.8935 204.561 86.4566C179.291 85.7709 156.964 100.098 144.715 121.843L144.716 121.844Z" fill="#6AAB46"/>
</svg>